####
#
# OBJ File Generated by Meshlab
#
####
# Object cube.obj
#
# Vertices: 8
# Faces: 12
#
####
mtllib ./cube.obj.mtl

vn -0.8164966 -0.4082483 0.4082483
v -0.0250000 -0.0250000 0.0250000
vn -0.3333333 0.6666667 0.6666667
v -0.0250000 0.0250000 0.0250000
vn -0.3333333 -0.6666667 -0.6666667
v -0.0250000 -0.0250000 -0.0250000
vn -0.8164966 0.4082483 -0.4082483
v -0.0250000 0.0250000 -0.0250000
vn 0.3333333 -0.6666667 0.6666667
v 0.0250000 -0.0250000 0.0250000
vn 0.8164966 0.4082483 0.4082483
v 0.0250000 0.0250000 0.0250000
vn 0.8164966 -0.4082483 -0.4082483
v 0.0250000 -0.0250000 -0.0250000
vn 0.3333333 0.6666667 -0.6666667
v 0.0250000 0.0250000 -0.0250000
# 8 vertices, 0 vertices normals


usemtl material_0
vt 1.0000000 0.3333330
vt 1.0000000 0.6666670
vt 0.5000000 0.6666670
f 1/1/1 2/2/2 4/3/4
vt 0.5000000 0.3333330
f 1/1/1 4/3/4 3/4/3
vt 0.5000000 1.0000000
vt 0.0000000 1.0000000
f 3/3/3 4/5/4 8/6/8
vt -0.0000000 0.6666670
f 3/3/3 8/6/8 7/7/7
f 7/4/7 8/3/8 6/7/6
vt -0.0000000 0.3333330
f 7/4/7 6/7/6 5/8/5
vt 1.0000000 -0.0000000
f 5/9/5 6/1/6 2/4/2
vt 0.5000000 0.0000000
f 5/9/5 2/4/2 1/10/1
f 3/10/3 7/4/7 5/8/5
vt 0.0000000 0.0000000
f 3/10/3 5/8/5 1/11/1
vt 1.0000000 1.0000000
f 8/2/8 4/12/4 2/5/2
f 8/2/8 2/5/2 6/3/6
# 12 faces, 12 coords texture

# End of File
